<?xml version="1.0" encoding="UTF-8"?>
<svg id="uuid-dd2e6544-87fd-4fc6-97f4-20539ec6b00b" xmlns="http://www.w3.org/2000/svg" version="1.1" viewBox="0 0 122.9 80">
  <defs>
    <style>
      .cls-1 {
        fill: #2aa3da;
      }

      .cls-1, .cls-2, .cls-3 {
        stroke-width: 0px;
      }

      .cls-2 {
        fill: #0f0593;
      }

      .cls-3 {
        fill: #fff;
      }
    </style>
  </defs>
  <path class="cls-3" d="M115.8,80H7.2c-4,0-7.2-2.9-7.2-6.5V0h122.9v73.5c0,3.6-3.2,6.5-7.1,6.5"/>
  <path class="cls-1" d="M66.2,59.5l-4.4-7.2h-1.1l4.7,7.7c0,.2,0,.5,0,.7s-.3.3-.6.3H13.6c-.2,0-.5,0-.6-.3s-.1-.5,0-.7L38.7,15.6c0-.2.3-.3.6-.3s.5.1.6.3l5.9,10.5.5-1.1-5.6-9.9c-.3-.5-.9-.8-1.5-.8s-1.1.3-1.4.8L12.1,59.5c-.3.5-.3,1.1,0,1.6s.8.8,1.4.8h51.3c.6,0,1.1-.3,1.4-.8s.3-1.1,0-1.6"/>
  <path class="cls-2" d="M72.2,37.8c-.2-.2-.4-.3-.7-.3h0c-.7,0-1.3.3-2,.8-.6.5-1.2,1.1-1.6,1.9l.3-2.4h-4.8l-.2.9,1.5.3-1.9,10.7h3.5l1.3-7.5c.4-.7.9-1.2,1.3-1.5.5-.3,1-.5,1.6-.5l.5,1.7h.8l.6-3.3c0-.3,0-.6-.2-.8h0Z"/>
  <path class="cls-2" d="M60.5,38c-.9-.4-2-.6-3.2-.6s-2.5.4-3.6,1.1-2,1.7-2.6,3-.9,2.6-.9,4.1.3,2.4.9,3.2c.6.8,1.4,1.2,2.5,1.2s1.3-.2,1.9-.5c.6-.3,1.1-.8,1.6-1.4v1.7h4.5v-.8c0,0-1.3-.4-1.3-.4l1.9-10.9h-.7l-1,.5h0s0-.2,0-.2ZM57.2,46.2c-.3.5-.7.9-1.1,1.2-.4.3-.8.5-1.1.5s-.8-.2-1-.7c-.3-.5-.4-1.2-.4-2s.2-2.1.5-3.1.7-1.8,1.2-2.4,1.1-.9,1.7-.9,1.2,0,1.5.4l-1.2,7h-.1Z"/>
  <path class="cls-2" d="M81.6,48l-.6-.8h0c-.5.4-1,.6-1.5.9-.5.2-1.1.3-1.7.3s-1.2-.3-1.6-.8-.6-1.2-.6-2.2.2-2.3.5-3.3.8-1.8,1.4-2.4,1.2-.9,1.8-.9,1.4.2,1.8.7l.2,2.1h1l.6-3.6h0c-.4,0-1-.3-1.7-.4s-1.4-.2-2-.2c-1.3,0-2.4.3-3.5,1s-1.9,1.6-2.6,2.8c-.6,1.2-.9,2.6-.9,4.2s.4,2.5,1.2,3.3,1.9,1.2,3.4,1.2,1.6-.2,2.5-.5c.8-.3,1.6-.8,2.3-1.4h0Z"/>
  <path class="cls-2" d="M94.8,37.8h-2.9l-.2.9h0c.4,0,.6.2.7.3,0,0,.2.2.3.3s0,.3,0,.5,0,.6-.2,1-.3.8-.6,1.2l-2.2,3.7-1.6-6.8c-.2-.7-.8-1.1-1.4-1.1h-2.7l-.2.9.8.3,2.7,10.7c-.9,1.5-1.7,2.6-2.3,3.2-.6.6-1.1.9-1.6.9s-.6,0-.8-.3l-.2-1.6h-.8l-.5,3.1h0c.4,0,.8.2,1,.2h1c.6,0,1.3-.2,1.8-.5.6-.3,1.1-.8,1.7-1.4.6-.6,1.2-1.6,2-2.9l5.5-9c.7-1.1,1-2,1-2.8s0-.6-.3-.8h0Z"/>
  <path class="cls-2" d="M105.2,38.5c0-.3,0-.6-.2-.8s-.4-.3-.7-.3h0c-.7,0-1.3.3-2,.8-.6.5-1.2,1.1-1.6,1.9l.3-2.4h-4.8l-.2.9,1.5.3-1.9,10.6h3.4l1.3-7.5c.4-.7.9-1.2,1.3-1.5s1-.5,1.6-.5l.5,1.7h.8l.6-3.3h0q0,0,0,0Z"/>
  <path class="cls-2" d="M110.9,33c0-.3,0-.6-.2-.9s-.5-.4-.8-.4h-3.3l-.2.9,1.1.3-3,16.7h5l.2-.9-1.5-.3,2.7-15.4h0Z"/>
  <path class="cls-2" d="M50,26.5h-1.8l-12.2,28.4,4.4-23.2c.2-1.2-.7-2.3-1.9-2.3h-1.2l-7.2,18.8,1.9-8.8c.1-.6-.3-1.1-.9-1.1h-9.6v.8c-.1,0,6.8.4,6.8.4l-2.2,11.6h4l6.1-15.1-3.9,20.7h4l11-24-5.5,33h3.5l6.3-37.6c.2-.9-.5-1.7-1.4-1.7h0s-.2.1-.2,0Z"/>
  <g>
    <path class="cls-1" d="M89.1,35.2c-.3,0-.4,0-.7-.2-.2,0-.3-.3-.4-.4s-.2-.4-.2-.8v-.9c0-.4.2-.8.3-1s.6-.3,1-.3.8,0,1,.3c.3.3.3.5.3,1h-.6v-.4c0,0-.2-.2-.3-.3s-.3,0-.4,0c-.3,0-.4,0-.6.3-.2.2-.2.3-.2.6v.9c0,.3,0,.4.2.6s.3.3.6.3.4,0,.6-.2.2-.3.2-.5h-.9v-.5h1.5v1.7h-.5v-.3h0s0,0-.2.2-.2,0-.3.2-.3,0-.4,0c0,0-.2,0-.2,0Z"/>
    <path class="cls-1" d="M91.1,35.1v-3.6h1.5c.3,0,.4,0,.6,0,.2,0,.3.2.3.3s.2.3.2.5h0c0,.3,0,.4-.2.6,0,.2-.3.3-.3.3h0c.2,0,.3.2.3.2,0,0,0,.2,0,.3v1.1h-.6v-1.2h-1.2v1.4h-.7ZM91.8,33.2h.9c.2,0,.3,0,.4-.2s.2-.2.2-.3h0c0-.2,0-.3-.2-.4,0,0-.3-.2-.4-.2h-.9v1h0Z"/>
    <path class="cls-1" d="M95.7,35.2c-.4,0-.8,0-1-.3-.3-.3-.3-.6-.3-1v-.9c0-.4.2-.8.3-1,.3-.3.6-.3,1-.3s.8,0,1,.3c.3.3.3.6.3,1v.9c0,.4-.2.8-.3,1-.3.3-.6.3-1,.3ZM95.7,34.7c.3,0,.4,0,.6-.3.2-.2.2-.3.2-.6v-.9c0-.3,0-.4-.2-.6s-.3-.3-.6-.3-.4,0-.6.3c-.2.2-.2.3-.2.6v.9c0,.3,0,.4.2.6s.3.3.6.3Z"/>
    <path class="cls-1" d="M99.1,35.2c-.3,0-.5,0-.7-.2-.2,0-.3-.3-.4-.4s-.2-.4-.2-.7v-2.3h.6v2.3c0,.3,0,.4.2.5s.3.2.6.2.4,0,.6-.2.2-.3.2-.5v-2.3h.6v2.3c0,.3,0,.5-.2.7,0,.2-.3.3-.4.4s-.4.2-.7.2h-.2,0Z"/>
    <path class="cls-1" d="M101.2,35.1v-3.6h1.5c.3,0,.4,0,.6.2.2,0,.3.2.4.3,0,.2.2.3.2.6h0c0,.3,0,.5-.2.6,0,.2-.3.3-.4.3-.2,0-.3.2-.6.2h-.8v1.3s-.7,0-.7,0ZM101.8,33.3h.8c.2,0,.3,0,.4-.2,0,0,.2-.3.2-.4h0c0-.2,0-.3-.2-.4s-.3-.2-.4-.2h-.8v1.2Z"/>
  </g>
</svg>